<svg width="20" height="20" viewBox="0 0 20 20" fill="none" xmlns="http://www.w3.org/2000/svg">
<path fill-rule="evenodd" clip-rule="evenodd" d="M3.33325 9.99999C3.33325 9.53975 3.70635 9.16666 4.16659 9.16666H15.8333C16.2935 9.16666 16.6666 9.53975 16.6666 9.99999C16.6666 10.4602 16.2935 10.8333 15.8333 10.8333H4.16659C3.70635 10.8333 3.33325 10.4602 3.33325 9.99999Z" fill="#666666"/>
<path fill-rule="evenodd" clip-rule="evenodd" d="M10.5892 3.57742C10.9146 3.90286 10.9146 4.4305 10.5892 4.75593L5.3451 10L10.5892 15.2441C10.9146 15.5695 10.9146 16.0972 10.5892 16.4226C10.2637 16.748 9.7361 16.748 9.41066 16.4226L3.57733 10.5893C3.25189 10.2638 3.25189 9.73619 3.57733 9.41075L9.41066 3.57742C9.7361 3.25198 10.2637 3.25198 10.5892 3.57742Z" fill="#666666"/>
</svg>
